<svg xmlns="http://www.w3.org/2000/svg" width="512" height="512" viewBox="0 0 512 512" version="1.1"><path d="M 321 32.986 C 311.258 34.208, 297.753 39.978, 293.972 44.533 C 292.722 46.040, 293.029 46.121, 297.552 45.469 C 300.273 45.076, 305.698 43.754, 309.606 42.530 L 316.712 40.304 320.356 47.669 C 322.360 51.719, 324 55.231, 324 55.473 C 324 55.715, 320.466 57.029, 316.148 58.394 C 307.677 61.070, 290.126 64, 282.571 64 C 278.129 64, 277.822 64.183, 276.355 67.694 C 274.016 73.290, 273.451 78.002, 275.119 77.991 C 275.879 77.987, 283.065 76.652, 291.089 75.025 C 315.040 70.170, 335.985 62.408, 348.934 53.589 L 354.368 49.888 360.366 55.886 L 366.364 61.884 363.932 63.946 C 348.985 76.613, 312.032 90.008, 280.327 94.250 L 272 95.364 272 99.700 L 272 104.036 283.250 103.457 C 305.216 102.327, 325.590 98.277, 342.853 91.610 C 352.114 88.034, 365.926 81.334, 372.185 77.384 L 376 74.975 376 58.677 L 376 42.380 372.750 39.042 C 367.115 33.255, 364.427 32.610, 345 32.378 C 335.375 32.264, 324.575 32.537, 321 32.986 M 403.437 212.250 L 400.500 215.500 403.750 212.563 C 406.779 209.825, 407.460 209, 406.687 209 C 406.515 209, 405.052 210.463, 403.437 212.250 M 32 472 L 32 480 256 480 L 480 480 480 472 L 480 464 256 464 L 32 464 32 472" stroke="none" fill="#844e3a" fill-rule="evenodd"/><path d="M 390.500 117 C 392.648 119.200, 394.631 121, 394.906 121 C 395.181 121, 393.648 119.200, 391.500 117 C 389.352 114.800, 387.369 113, 387.094 113 C 386.819 113, 388.352 114.800, 390.500 117 M 268.072 141.635 C 264.725 145.891, 263.487 151.343, 264.841 155.865 C 266.064 159.946, 269.511 165, 271.073 165 C 271.595 165, 272 159.322, 272 152 C 272 144.678, 271.595 139, 271.073 139 C 270.562 139, 269.212 140.186, 268.072 141.635 M 440 152 C 440 159.322, 440.405 165, 440.927 165 C 442.489 165, 445.936 159.946, 447.159 155.865 C 448.036 152.937, 448.036 151.063, 447.159 148.135 C 445.936 144.054, 442.489 139, 440.927 139 C 440.405 139, 440 144.678, 440 152 M 376.500 245.695 C 370.946 247.379, 347.618 248.036, 339.979 246.723 C 335.592 245.969, 335.425 246.035, 334.321 248.959 C 333.198 251.935, 333.235 251.986, 337.336 253.090 C 348.772 256.170, 365.737 255.724, 378.227 252.016 L 385.814 249.764 384.809 246.882 C 383.676 243.633, 383.421 243.596, 376.500 245.695" stroke="none" fill="#fdb683" fill-rule="evenodd"/><path d="M 322.250 32.689 C 323.212 32.941, 324.788 32.941, 325.750 32.689 C 326.712 32.438, 325.925 32.232, 324 32.232 C 322.075 32.232, 321.288 32.438, 322.250 32.689 M 293 44.500 C 290.892 46.744, 290.840 47, 292.492 47 C 293.505 47, 294.032 46.699, 293.664 46.331 C 293.297 45.963, 293.741 44.838, 294.653 43.831 C 297.178 41.041, 295.680 41.647, 293 44.500 M 392 66.818 C 392 80.167, 392.397 85.975, 393.584 89.972 C 397.201 102.149, 405.510 110.531, 418.343 114.946 L 424.183 116.955 423.842 97.728 C 423.501 78.529, 423.495 78.490, 420.335 71.820 C 416.051 62.777, 410.274 56.776, 401.748 52.510 C 397.889 50.580, 394.117 49, 393.366 49 C 392.263 49, 392 52.426, 392 66.818 M 282.750 103.723 C 284.538 103.945, 287.462 103.945, 289.250 103.723 C 291.038 103.502, 289.575 103.320, 286 103.320 C 282.425 103.320, 280.962 103.502, 282.750 103.723 M 315 276.313 C 315 276.485, 316.462 277.948, 318.250 279.563 L 321.500 282.500 318.563 279.250 C 315.825 276.221, 315 275.540, 315 276.313 M 399.437 279.250 L 396.500 282.500 399.750 279.563 C 402.779 276.825, 403.460 276, 402.687 276 C 402.515 276, 401.052 277.462, 399.437 279.250" stroke="none" fill="#7d4a38" fill-rule="evenodd"/><path d="M 43.315 209.093 C 39.021 210.347, 34.298 215.265, 33.041 219.791 C 32.475 221.831, 32.009 229.012, 32.006 235.750 L 32 248 28 248 L 24 248 24 256 L 24 264 27.967 264 L 31.934 264 32.217 318.250 C 32.489 370.459, 32.575 372.625, 34.500 375.819 C 35.600 377.645, 38.075 380.120, 40 381.319 C 43.355 383.409, 44.708 383.513, 72.608 383.805 L 101.717 384.109 111.020 362.305 C 116.137 350.312, 121.229 339.488, 122.336 338.250 C 124.342 336.007, 124.450 336, 155.720 336 L 187.091 336 189.545 338.455 C 190.982 339.891, 192 342.069, 191.999 343.705 C 191.998 345.910, 187.748 367.394, 184.465 381.788 L 183.943 384.076 230.221 383.788 C 275.794 383.504, 276.553 383.467, 280 381.319 C 281.925 380.120, 284.400 377.645, 285.500 375.819 C 287.454 372.577, 287.500 370.727, 287.500 296 C 287.500 221.273, 287.454 219.423, 285.500 216.181 C 284.400 214.355, 281.925 211.880, 280 210.681 L 276.500 208.500 161.500 208.332 C 93.015 208.232, 45.212 208.540, 43.315 209.093 M 48 240 L 48 248 64 248 L 80 248 80 240 L 80 232 64 232 L 48 232 48 240 M 96 240 L 96 248 112 248 L 128 248 128 240 L 128 232 112 232 L 96 232 96 240 M 144 240 L 144 248 160 248 L 176 248 176 240 L 176 232 160 232 L 144 232 144 240 M 192 240 L 192 248 208 248 L 224 248 224 240 L 224 232 208 232 L 192 232 192 240 M 240 240 L 240 248 256 248 L 272 248 272 240 L 272 232 256 232 L 240 232 240 240 M 113.243 399.252 C 102.109 425.241, 93 446.848, 93 447.267 C 93 447.686, 106.574 447.910, 123.164 447.765 L 153.328 447.500 161.145 411 C 165.444 390.925, 170.046 369.438, 171.371 363.250 L 173.781 352 153.633 352 L 133.485 352 113.243 399.252 M 173.483 433.250 C 173.233 433.938, 172.402 437.538, 171.636 441.250 L 170.244 448 185.122 448 L 200 448 200 440 L 200 432 186.969 432 C 177.453 432, 173.815 432.337, 173.483 433.250 M 248 440 L 248 448 268 448 L 288 448 288 440 L 288 432 268 432 L 248 432 248 440" stroke="none" fill="#d5d5d3" fill-rule="evenodd"/><path d="M 304 318.874 C 304 378.288, 304.042 377.773, 298.461 386.229 C 296.323 389.468, 296 391.093, 296 398.615 L 296 407.274 301.032 402.567 C 303.799 399.978, 308.637 396.654, 311.782 395.180 L 317.500 392.500 370.750 392.217 L 424 391.933 424 347.967 L 424 304 432 304 L 440 304 440 316 L 440 328 460 328 L 480 328 480 314.947 C 480 306.641, 479.425 299.365, 478.418 294.938 C 475.540 282.285, 466.264 271.686, 453.719 266.717 C 449.317 264.974, 445.674 264.583, 430.451 264.219 L 412.401 263.789 406.685 271.383 C 394.437 287.657, 378.275 296, 359 296 C 339.418 296, 321.296 286.389, 310.812 270.444 C 308.482 266.900, 305.996 264, 305.288 264 C 304.253 264, 304 274.780, 304 318.874 M 323.255 303.282 C 321.990 304.925, 316 315.618, 316 316.233 C 316 317.227, 331.726 323.781, 338.500 325.610 C 348.242 328.240, 372.812 328.292, 381.500 325.700 C 389.943 323.181, 398 319.908, 398 318.996 C 398 318.572, 396.590 315.212, 394.867 311.530 C 392.509 306.491, 391.335 304.970, 390.117 305.377 C 374.693 310.530, 371.167 311.236, 360.500 311.301 C 348.459 311.374, 338.203 309.164, 329.037 304.519 C 325.341 302.646, 323.970 302.352, 323.255 303.282" stroke="none" fill="#de5540" fill-rule="evenodd"/><path d="M 365.480 100.197 C 344.878 110.206, 322.013 116.758, 299.250 119.174 L 288 120.369 288.008 141.434 C 288.014 159.379, 288.413 166.320, 290.248 180.438 C 290.442 181.928, 289.633 182.587, 286.750 183.287 C 284.668 183.793, 283 184.813, 283 185.579 C 283 187.676, 286.110 195, 287 195 C 287.431 195, 290.150 197.127, 293.042 199.728 C 298.098 204.274, 303.997 214.190, 303.999 218.146 C 304 219.052, 305.610 221.206, 307.577 222.933 L 311.154 226.074 313.248 223.287 C 314.400 221.754, 315.639 220.149, 316.001 219.720 C 316.363 219.292, 319.323 220.545, 322.580 222.507 C 342.014 234.213, 369.651 234.118, 389.985 222.276 C 397.905 217.664, 409.337 206.405, 413.821 198.801 C 421.399 185.949, 423.979 173.146, 423.992 148.332 L 424 134.164 415.750 131.460 C 397.019 125.321, 386.149 115.757, 379.605 99.657 L 377.459 94.377 365.480 100.197 M 311.284 130.093 C 301.340 136.462, 301.414 151.767, 311.418 157.950 C 318.656 162.423, 329.458 159.849, 333.950 152.582 C 338.423 145.344, 335.849 134.542, 328.582 130.050 C 324.066 127.260, 315.676 127.280, 311.284 130.093 M 375.284 130.093 C 365.340 136.462, 365.414 151.767, 375.418 157.950 C 382.656 162.423, 393.458 159.849, 397.950 152.582 C 402.423 145.344, 399.849 134.542, 392.582 130.050 C 388.066 127.260, 379.676 127.280, 375.284 130.093 M 328.211 175.750 C 326.087 178.912, 324.028 182.046, 323.637 182.714 C 323.174 183.505, 324.597 184.775, 327.713 186.353 C 342.878 194.032, 361.122 194.032, 376.287 186.353 C 379.403 184.775, 380.826 183.505, 380.363 182.714 C 378.636 179.766, 371.893 170, 371.584 170 C 371.396 170, 368.655 171.184, 365.494 172.632 C 360.861 174.752, 358.242 175.263, 352 175.263 C 345.758 175.263, 343.139 174.752, 338.506 172.632 C 335.345 171.184, 332.604 170, 332.416 170 C 332.228 170, 330.336 172.588, 328.211 175.750 M 382.836 250.498 C 382.562 250.771, 378.774 251.910, 374.419 253.027 C 364.938 255.459, 348.513 255.735, 339.633 253.612 L 333.767 252.208 329.383 256.783 C 326.973 259.299, 325 261.662, 325 262.034 C 325 262.406, 327.474 265.050, 330.497 267.909 C 347.069 283.582, 371.530 283.253, 388.105 267.135 L 394.282 261.127 390.141 256.423 C 387.863 253.835, 386 251.332, 386 250.859 C 386 249.939, 383.662 249.672, 382.836 250.498 M 440 373.826 C 440 403.519, 439.990 403.661, 437.736 405.779 C 435.489 407.889, 435.020 407.908, 378.986 408.203 L 322.500 408.500 317.773 410.828 C 308.267 415.510, 304.967 421.948, 304.233 437.250 L 303.717 448 367.108 447.969 C 401.974 447.952, 433.875 447.507, 438 446.980 C 453.510 444.998, 467.481 434.900, 474.576 420.543 C 477.560 414.505, 478.340 411.529, 479.260 402.650 L 480.365 392 484.182 392 L 488 392 488 384 L 488 376 484 376 L 480 376 480 360 L 480 344 460 344 L 440 344 440 373.826 M 204.344 408.006 L 201.188 416 206.420 416 C 210.595 416, 212.090 416.467, 213.826 418.314 C 215.839 420.458, 216 421.639, 216 434.314 L 216 448 224 448 L 232 448 232 434.174 C 232 421.015, 232.112 420.244, 234.314 418.174 C 236.064 416.531, 237.869 416, 241.708 416 L 246.787 416 249.505 409.250 C 251 405.538, 252.446 401.938, 252.719 401.250 C 253.106 400.272, 248.242 400.001, 230.357 400.006 L 207.500 400.012 204.344 408.006" stroke="none" fill="#fdc8a2" fill-rule="evenodd"/><path d="" stroke="none" fill="#e1d0c2" fill-rule="evenodd"/><path d="M 310 18.015 C 284.239 24.767, 264.548 44.610, 258.006 70.410 C 256.352 76.931, 256 81.597, 256 96.986 C 256 115.204, 256.056 115.704, 258.314 117.826 C 260.154 119.554, 261.847 120, 266.564 120.001 L 272.500 120.002 266.500 122.882 C 259.064 126.452, 253.911 131.735, 250.432 139.352 C 248.054 144.560, 247.809 146.101, 248.207 153.352 C 248.718 162.645, 250.991 168.162, 256.856 174.336 C 260.543 178.218, 268.625 183, 271.498 183 C 272.359 183, 273.322 183.675, 273.638 184.500 C 274.359 186.379, 277.676 186.417, 281.183 184.588 C 282.658 183.818, 285.286 182.876, 287.023 182.495 C 289.726 181.901, 290.072 181.491, 289.421 179.651 C 289.003 178.468, 288.482 164.407, 288.264 148.404 L 287.867 119.309 296.764 118.677 C 318.077 117.165, 345.020 109.566, 365.862 99.190 L 377.819 93.238 379.936 99.045 C 383.966 110.097, 394.118 121.104, 405.500 126.764 C 407.700 127.858, 412.762 129.797, 416.750 131.073 L 424 133.394 424 153.037 C 424 169.153, 423.654 174.032, 422.075 180.208 C 415.594 205.548, 397.252 223.734, 371.644 230.209 C 355.826 234.209, 335.131 231.156, 321.564 222.822 C 316.842 219.921, 316.570 219.870, 315.317 221.645 C 314.596 222.665, 313.179 224.400, 312.168 225.500 C 311.157 226.600, 309.555 228.697, 308.609 230.161 L 306.887 232.821 313.384 236.713 C 319.594 240.432, 319.828 240.712, 318.671 243.032 C 317.076 246.233, 313.457 247.967, 308.338 247.985 L 304.176 248 303.838 232.250 C 303.519 217.372, 303.345 216.184, 300.700 210.797 C 299.049 207.437, 295.790 203.198, 292.762 200.476 C 282.977 191.678, 296.653 192.500, 160 192.500 L 38.500 192.500 34 194.856 C 27.861 198.070, 22.351 203.513, 19.175 209.500 C 16.663 214.235, 16.504 215.388, 16.177 231.250 L 15.831 248 23.916 248 L 32 248 32 233.648 C 32 220.376, 32.171 219.042, 34.274 215.922 C 35.524 214.066, 38.066 211.524, 39.922 210.274 L 43.296 208 160 208 L 276.704 208 280.078 210.274 C 281.934 211.524, 284.476 214.066, 285.726 215.922 L 288 219.296 288 296 L 288 372.704 285.726 376.078 C 284.476 377.934, 281.934 380.476, 280.078 381.726 L 276.704 384 230.017 384 L 183.330 384 187.629 364.250 C 189.993 353.387, 191.944 343.903, 191.964 343.173 C 191.984 342.443, 190.685 340.531, 189.077 338.923 L 186.154 336 156.212 336 C 127.876 336, 126.135 336.106, 123.750 337.982 C 122.026 339.338, 118.278 346.900, 111.866 361.962 L 102.500 383.961 72.898 383.981 C 43.748 384, 43.244 383.965, 39.922 381.726 C 38.066 380.476, 35.524 377.934, 34.274 376.078 L 32 372.704 32 318.352 L 32 264 23.968 264 L 15.937 264 16.218 320.750 L 16.500 377.500 19.164 382.500 C 22.356 388.493, 27.869 393.934, 34 397.144 C 38.337 399.415, 39.519 399.518, 66.599 400 L 94.698 400.500 84.599 424.232 L 74.500 447.964 47.424 447.982 C 12.800 448.005, 16 445.545, 16 472.140 C 16 491.242, 16.049 491.697, 18.314 493.826 L 20.629 496 256.140 496 L 491.651 496 493.826 493.686 C 495.905 491.473, 496 490.516, 496 471.860 C 496 452.758, 495.951 452.303, 493.686 450.174 C 491.693 448.303, 490.216 448, 483.078 448 L 474.785 448 480.142 442.211 C 490.410 431.118, 496 416.509, 496 400.770 L 496 392 488 392 L 480 392 480 399.290 C 480 417.272, 470.950 433.160, 455.755 441.854 C 444.971 448.024, 445.305 448, 371.206 448 L 303.833 448 304.166 436.166 C 304.481 425.023, 304.677 424.047, 307.526 419.443 C 309.398 416.418, 312.420 413.398, 315.447 411.526 L 320.340 408.500 377.757 408 L 435.175 407.500 437.587 404.694 L 440 401.888 440 372.944 L 440 344 460 344 L 480 344 480 360 L 480 376 488 376 L 496 376 495.988 335.750 C 495.979 303.770, 495.678 294.379, 494.525 290.045 C 489.706 271.938, 476.374 257.432, 458.432 250.776 C 453.136 248.811, 449.957 248.517, 428.775 248.037 C 406.540 247.534, 404.921 247.371, 402.993 245.440 C 401.862 244.307, 400.676 241.776, 400.357 239.814 C 399.810 236.443, 400.042 236.067, 404.603 232.929 C 417.548 224.023, 429.653 208.076, 435.175 192.653 C 437.005 187.544, 439.010 183.600, 439.922 183.318 C 449.226 180.444, 456.736 174.397, 460.760 166.540 C 462.711 162.730, 463.451 159.520, 463.789 153.388 C 464.188 146.145, 463.942 144.621, 461.489 139.154 C 458.231 131.896, 451.574 125.250, 444.754 122.449 L 440.007 120.500 440.004 100.144 C 440.001 84.832, 439.608 78.266, 438.416 73.644 C 433.347 53.983, 415.719 37.110, 395.991 33.035 C 390.346 31.869, 388.759 30.996, 383.817 26.340 C 373.774 16.879, 372.528 16.572, 343 16.291 C 320.363 16.076, 316.658 16.269, 310 18.015 M 319 32.691 C 310.518 34.111, 296.918 40.330, 292.869 44.640 L 290.564 47.093 295.032 46.410 C 299.665 45.701, 312.356 42.625, 315.025 41.565 C 316.148 41.118, 317.401 42.683, 319.775 47.498 C 321.549 51.095, 323 54.417, 323 54.880 C 323 57.131, 301.175 62.120, 285.349 63.487 L 277.199 64.191 275.619 68.345 C 274.749 70.630, 273.748 73.963, 273.394 75.750 C 272.649 79.509, 270.576 79.553, 291.910 75.362 C 313.575 71.106, 337.575 62.205, 349.489 54.007 C 351.893 52.353, 354.246 51, 354.718 51 C 355.797 51, 365 60.285, 365 61.374 C 365 63.787, 351.164 72.344, 338.104 78.008 C 322.337 84.847, 298.762 91.146, 276.250 94.536 L 272 95.176 272 99.742 L 272 104.307 285.750 103.694 C 312.780 102.487, 338.640 95.569, 362.500 83.162 L 375.500 76.402 375.774 59.031 L 376.049 41.660 373.274 38.704 C 367.582 32.638, 364.684 32.032, 342 32.158 C 330.725 32.221, 320.375 32.461, 319 32.691 M 392 66.818 C 392 80.167, 392.397 85.975, 393.584 89.972 C 397.201 102.149, 405.510 110.531, 418.343 114.946 L 424.183 116.955 423.842 97.728 C 423.501 78.529, 423.495 78.490, 420.335 71.820 C 416.051 62.777, 410.274 56.776, 401.748 52.510 C 397.889 50.580, 394.117 49, 393.366 49 C 392.263 49, 392 52.426, 392 66.818 M 312.962 130.250 C 308.159 132.672, 304 139.053, 304 144 C 304 145.417, 305.012 148.584, 306.250 151.038 C 308.672 155.841, 315.053 160, 320 160 C 321.417 160, 324.584 158.988, 327.038 157.750 C 331.841 155.328, 336 148.947, 336 144 C 336 142.583, 334.988 139.416, 333.750 136.962 C 331.328 132.159, 324.947 128, 320 128 C 318.583 128, 315.416 129.012, 312.962 130.250 M 376.962 130.250 C 372.159 132.672, 368 139.053, 368 144 C 368 145.417, 369.012 148.584, 370.250 151.038 C 372.672 155.841, 379.053 160, 384 160 C 385.417 160, 388.584 158.988, 391.038 157.750 C 395.841 155.328, 400 148.947, 400 144 C 400 142.583, 398.988 139.416, 397.750 136.962 C 395.328 132.159, 388.947 128, 384 128 C 382.583 128, 379.416 129.012, 376.962 130.250 M 268.809 140.750 C 265.119 144.707, 264 147.320, 264 151.984 C 264 156.712, 265.697 160.460, 269.405 163.924 L 272 166.349 272 152.174 C 272 144.378, 271.859 138, 271.687 138 C 271.515 138, 270.220 139.238, 268.809 140.750 M 440 152 L 440 166.349 442.595 163.924 C 446.300 160.463, 448 156.712, 448 152 C 448 147.288, 446.300 143.537, 442.595 140.076 L 440 137.651 440 152 M 328.141 177.145 L 324.134 183.448 326.817 185.244 C 338.793 193.260, 365.207 193.260, 377.183 185.244 L 379.866 183.448 375.859 177.145 C 372.744 172.247, 371.478 171.006, 370.176 171.574 C 363.246 174.598, 357.673 175.935, 352 175.935 C 346.327 175.935, 340.754 174.598, 333.824 171.574 C 332.522 171.006, 331.256 172.247, 328.141 177.145 M 48 240 L 48 248 64 248 L 80 248 80 240 L 80 232 64 232 L 48 232 48 240 M 96 240 L 96 248 112 248 L 128 248 128 240 L 128 232 112 232 L 96 232 96 240 M 144 240 L 144 248 160 248 L 176 248 176 240 L 176 232 160 232 L 144 232 144 240 M 192 240 L 192 248 208 248 L 224 248 224 240 L 224 232 208 232 L 192 232 192 240 M 240 240 L 240 248 256 248 L 272 248 272 240 L 272 232 256 232 L 240 232 240 240 M 378 244.608 C 369.682 247.216, 356.751 248.239, 347.042 247.058 C 342.115 246.459, 337.435 245.720, 336.642 245.416 C 335.650 245.036, 334.823 246.007, 333.991 248.528 C 333.325 250.544, 330.823 254.237, 328.429 256.735 C 325.098 260.212, 324.288 261.669, 324.974 262.951 C 326.879 266.512, 335.439 273.312, 341.820 276.335 C 348.007 279.266, 349.280 279.500, 359.052 279.500 C 369.234 279.500, 369.870 279.368, 377.210 275.741 C 382.573 273.090, 386.335 270.319, 389.968 266.345 L 395.120 260.707 391.670 257.104 C 387.737 252.995, 385 248.049, 385 245.050 C 385 242.705, 384.226 242.657, 378 244.608 M 303.790 319.750 L 303.500 375.500 301.140 380.719 C 299.843 383.589, 298.155 386.456, 297.390 387.091 C 296.378 387.931, 296 390.883, 296 397.951 L 296 407.657 300.492 403.353 C 305.801 398.266, 310.832 395.539, 318.680 393.495 C 323.402 392.265, 333.249 392, 374.210 392 L 424 392 424 348 L 424 304 432 304 L 440 304 440 316 L 440 328 460 328 L 480 328 480 313.105 C 480 301.055, 479.621 296.997, 478.017 291.855 C 474.327 280.035, 463.965 269.673, 452.145 265.983 C 446.830 264.325, 442.981 264.004, 428.645 264.022 L 411.500 264.043 407.500 269.637 C 396 285.721, 377.129 295.965, 359 295.965 C 340.789 295.965, 320.184 284.661, 310.304 269.250 C 303.929 259.306, 304.111 257.899, 303.790 319.750 M 320.250 308.941 C 318.462 312.196, 317 315.274, 317 315.781 C 317 317.220, 329.786 322.760, 338.567 325.126 C 349.846 328.166, 370.264 328.196, 381.282 325.189 C 385.561 324.021, 391.060 322.182, 393.501 321.103 L 397.938 319.140 394.861 312.320 C 393.168 308.569, 391.671 305.376, 391.533 305.225 C 391.396 305.074, 389.204 305.841, 386.664 306.930 C 370.553 313.836, 347.702 313.419, 331.157 305.917 C 327.619 304.313, 324.448 303.005, 324.112 303.012 C 323.775 303.018, 322.038 305.687, 320.250 308.941 M 131.530 355.250 C 130.777 357.038, 121.756 378.075, 111.481 402 C 101.207 425.925, 92.573 446.063, 92.294 446.750 C 91.894 447.734, 98.403 448, 122.893 448 C 140.002 448, 154 447.772, 154 447.494 C 154 447.216, 158.500 426.002, 164 400.351 C 169.500 374.700, 174 353.328, 174 352.857 C 174 352.386, 164.752 352, 153.449 352 L 132.898 352 131.530 355.250 M 275.384 399.801 L 271.268 400.102 268.258 407.801 L 265.248 415.500 272.244 415.796 C 276.092 415.959, 279.431 415.903, 279.663 415.670 C 279.895 415.438, 279.953 411.705, 279.792 407.374 L 279.500 399.500 275.384 399.801 M 179.154 406.467 C 178.499 410.024, 177.685 413.657, 177.346 414.541 C 176.845 415.846, 177.335 416.086, 179.963 415.823 C 182.870 415.533, 183.434 414.916, 185.537 409.731 C 189.680 399.517, 189.720 400, 184.740 400 L 180.346 400 179.154 406.467 M 205.449 403.500 C 204.652 405.425, 203.325 408.630, 202.500 410.622 C 200.365 415.778, 200.492 416, 205.577 416 C 209.302 416, 210.698 416.544, 213.077 418.923 L 216 421.846 216 434.923 L 216 448 224 448 L 232 448 232 434.923 L 232 421.846 234.923 418.923 C 237.371 416.475, 238.655 416, 242.825 416 C 247.351 416, 247.894 415.750, 248.790 413.250 C 249.332 411.738, 250.720 408.137, 251.873 405.250 L 253.971 400 230.434 400 L 206.898 400 205.449 403.500 M 171.580 438.947 C 170.711 442.768, 170 446.368, 170 446.947 C 170 447.637, 175.167 448, 185 448 L 200 448 200 440 L 200 432 186.580 432 L 173.160 432 171.580 438.947 M 248 440 L 248 448 268 448 L 288 448 288 440 L 288 432 268 432 L 248 432 248 440 M 32 472 L 32 480 256 480 L 480 480 480 472 L 480 464 256 464 L 32 464 32 472" stroke="none" fill="#040404" fill-rule="evenodd"/></svg>